HIERARCHY
ROOT hip
{
  OFFSET -107.001 80.2815 -20.2812
  CHANNELS 6 Xposition Yposition Zposition Zrotation Xrotation Yrotation
  JOINT abdomen
  {
    OFFSET 0 20.6881 -0.73152
    CHANNELS 3 Zrotation Xrotation Yrotation
    JOINT chest
    {
      OFFSET 0 11.7043 -0.48768
      CHANNELS 3 Zrotation Xrotation Yrotation
      JOINT neck
      {
        OFFSET 0 22.1894 -2.19456
        CHANNELS 3 Zrotation Xrotation Yrotation
        JOINT head
        {
          OFFSET -0.24384 7.07133 1.2192
          CHANNELS 3 Zrotation Xrotation Yrotation
          JOINT leftEye
          {
            OFFSET 4.14528 8.04674 8.04672
            CHANNELS 3 Zrotation Xrotation Yrotation
            End Site
            {
              OFFSET 1 0 0
            }
          }
          JOINT rightEye
          {
            OFFSET -3.6576 8.04674 8.04672
            CHANNELS 3 Zrotation Xrotation Yrotation
            End Site
            {
              OFFSET 1 0 0
            }
          }
        }
      }
      JOINT rCollar
      {
        OFFSET -2.68224 19.2634 -4.8768
        CHANNELS 3 Zrotation Xrotation Yrotation
        JOINT rShldr
        {
          OFFSET -8.77824 -1.95073 1.46304
          CHANNELS 3 Zrotation Xrotation Yrotation
          JOINT rForeArm
          {
            OFFSET -28.1742 -1.7115 0.48768
            CHANNELS 3 Zrotation Xrotation Yrotation
            JOINT rHand
            {
              OFFSET -22.5879 0.773209 7.07136
              CHANNELS 3 Zrotation Xrotation Yrotation
              JOINT rThumb1
              {
                OFFSET -1.2192 -0.487915 3.41376
                CHANNELS 3 Zrotation Xrotation Yrotation
                JOINT rThumb2
                {
                  OFFSET -3.37035 -0.52449 3.41376
                  CHANNELS 3 Zrotation Xrotation Yrotation
                  End Site
                  {
                    OFFSET -1.78271 -1.18214 1.43049
                  }
                }
              }
              JOINT rIndex1
              {
                OFFSET -7.75947 0.938293 5.60832
                CHANNELS 3 Zrotation Xrotation Yrotation
                JOINT rIndex2
                {
                  OFFSET -2.54057 -0.884171 1.56538
                  CHANNELS 3 Zrotation Xrotation Yrotation
                  End Site
                  {
                    OFFSET -1.62519 -0.234802 1.16502
                  }
                }
              }
              JOINT rMid1
              {
                OFFSET -8.24714 1.18213 3.41376
                CHANNELS 3 Zrotation Xrotation Yrotation
                JOINT rMid2
                {
                  OFFSET -3.10165 -0.590103 1.0647
                  CHANNELS 3 Zrotation Xrotation Yrotation
                  End Site
                  {
                    OFFSET -2.48547 -0.328903 0.83742
                  }
                }
              }
              JOINT rRing1
              {
                OFFSET -8.82822 0.546677 1.51678
                CHANNELS 3 Zrotation Xrotation Yrotation
                JOINT rRing2
                {
                  OFFSET -2.60934 -0.819778 -0.0198488
                  CHANNELS 3 Zrotation Xrotation Yrotation
                  End Site
                  {
                    OFFSET -2.33842 -0.294052 0.168128
                  }
                }
              }
              JOINT rPinky1
              {
                OFFSET -8.27202 -0.0477905 -0.4584
                CHANNELS 3 Zrotation Xrotation Yrotation
                JOINT rPinky2
                {
                  OFFSET -1.82734 -0.647385 -0.700984
                  CHANNELS 3 Zrotation Xrotation Yrotation
                  End Site
                  {
                    OFFSET -1.69225 -0.51767 -0.607171
                  }
                }
              }
            }
          }
        }
      }
      JOINT lCollar
      {
        OFFSET 2.68224 19.2634 -4.8768
        CHANNELS 3 Zrotation Xrotation Yrotation
        JOINT lShldr
        {
          OFFSET 8.77824 -1.95073 1.46304
          CHANNELS 3 Zrotation Xrotation Yrotation
          JOINT lForeArm
          {
            OFFSET 28.1742 -1.7115 0.48768
            CHANNELS 3 Zrotation Xrotation Yrotation
            JOINT lHand
            {
              OFFSET 22.5879 0.773209 7.07136
              CHANNELS 3 Zrotation Xrotation Yrotation
              JOINT lThumb1
              {
                OFFSET 1.2192 -0.487915 3.41376
                CHANNELS 3 Zrotation Xrotation Yrotation
                JOINT lThumb2
                {
                  OFFSET 3.37035 -0.52449 3.41376
                  CHANNELS 3 Zrotation Xrotation Yrotation
                  End Site
                  {
                    OFFSET 1.78271 -1.18214 1.43049
                  }
                }
              }
              JOINT lIndex1
              {
                OFFSET 7.75947 0.938293 5.60832
                CHANNELS 3 Zrotation Xrotation Yrotation
                JOINT lIndex2
                {
                  OFFSET 2.54057 -0.884171 1.56538
                  CHANNELS 3 Zrotation Xrotation Yrotation
                  End Site
                  {
                    OFFSET 1.62519 -0.234802 1.16502
                  }
                }
              }
              JOINT lMid1
              {
                OFFSET 8.24714 1.18213 3.41376
                CHANNELS 3 Zrotation Xrotation Yrotation
                JOINT lMid2
                {
                  OFFSET 3.10165 -0.590103 1.0647
                  CHANNELS 3 Zrotation Xrotation Yrotation
                  End Site
                  {
                    OFFSET 2.48547 -0.328903 0.83742
                  }
                }
              }
              JOINT lRing1
              {
                OFFSET 8.82822 0.546677 1.51678
                CHANNELS 3 Zrotation Xrotation Yrotation
                JOINT lRing2
                {
                  OFFSET 2.60934 -0.819778 -0.0198488
                  CHANNELS 3 Zrotation Xrotation Yrotation
                  End Site
                  {
                    OFFSET 2.33842 -0.294052 0.168128
                  }
                }
              }
              JOINT lPinky1
              {
                OFFSET 8.27202 -0.0477905 -0.4584
                CHANNELS 3 Zrotation Xrotation Yrotation
                JOINT lPinky2
                {
                  OFFSET 1.82734 -0.647385 -0.700984
                  CHANNELS 3 Zrotation Xrotation Yrotation
                  End Site
                  {
                    OFFSET 1.69225 -0.51767 -0.607171
                  }
                }
              }
            }
          }
        }
      }
    }
  }
  JOINT rButtock
  {
    OFFSET -8.77824 4.35084 1.2192
    CHANNELS 3 Zrotation Xrotation Yrotation
    JOINT rThigh
    {
      OFFSET 0 -1.70687 -2.19456
      CHANNELS 3 Zrotation Xrotation Yrotation
      JOINT rShin
      {
        OFFSET 0 -36.8199 0.73152
        CHANNELS 3 Zrotation Xrotation Yrotation
        JOINT rFoot
        {
          OFFSET 0.73152 -45.1104 -5.12064
          CHANNELS 3 Zrotation Xrotation Yrotation
          End Site
          {
            OFFSET -1.1221 -3.69964 12.103
          }
        }
      }
    }
  }
  JOINT lButtock
  {
    OFFSET 8.77824 4.35084 1.2192
    CHANNELS 3 Zrotation Xrotation Yrotation
    JOINT lThigh
    {
      OFFSET 0 -1.70687 -2.19456
      CHANNELS 3 Zrotation Xrotation Yrotation
      JOINT lShin
      {
        OFFSET 0 -36.8199 0.73152
        CHANNELS 3 Zrotation Xrotation Yrotation
        JOINT lFoot
        {
          OFFSET -0.73152 -45.1104 -5.12064
          CHANNELS 3 Zrotation Xrotation Yrotation
          End Site
          {
            OFFSET 1.1221 -3.69964 12.103
          }
        }
      }
    }
  }
}
MOTION
Frames:	8
Frame Time:	0.00833333
-20.6429 84.5294 6.45202 0.584922 -0.000670253 -0.0103466 -0.769338 -0.0038604 -0.0215831 -0.21207 -0.0050414 -0.0367435 7.13002e-015 7.95139e-016 -2.4848e-017 2.11426e-014 9.54166e-015 -1.04051e-016 -0 0 0 -0 0 0 3.62666e-015 7.37677e-018 1.49089e-016 7.47307e-014 3.35449e-016 5.96354e-016 1.26323e-012 -3.73119e-013 -9.54166e-015 1.44566e-011 4.0239e-013 -7.63333e-014 3.40982e-011 6.06858e-014 -1.7175e-013 5.88685e-011 1.01778e-013 -2.98177e-013 3.41003e-011 6.08281e-014 -1.84472e-013 7.73091 5.47488 0.417314 3.40965e-011 5.99336e-014 -1.68569e-013 2.90554 0.965183 0.102902 3.41033e-011 6.05299e-014 -1.7016e-013 10.2786 0.731801 0.0259123 3.40906e-011 6.16232e-014 -1.59028e-013 2.22167 -0.733487 -0.20892 3.33104e-015 6.40615e-018 -1.98785e-016 7.20227e-014 7.14382e-016 -9.93923e-016 1.26069e-012 3.86437e-013 -1.90833e-014 1.44488e-011 -3.35176e-013 -5.725e-014 3.40863e-011 1.03439e-013 -1.74931e-013 5.88804e-011 1.74931e-013 -2.99767e-013 3.40812e-011 1.03368e-013 -1.65389e-013 -7.73091 5.47488 -0.417314 3.40865e-011 1.03666e-013 -1.74931e-013 -2.90554 0.965183 -0.102902 3.40838e-011 1.0297e-013 -1.74931e-013 -10.2786 0.731801 -0.0259123 3.40955e-011 1.05753e-013 -1.84472e-013 -2.22167 -0.733487 0.20892 -2.03217e-016 0 -3.88251e-019 -0.0540179 -2.09675 -0.0177062 -0.00903938 -1.7549 -0.0760359 -0.528821 3.85119 0.13976 2.03217e-016 0 3.88251e-019 -1.11498 -4.98912 0.0938626 0.00115219 3.48416 -0.00506426 0.537122 1.50464 -0.0922945 
-26.5608 82.5805 0.139282 10.8845 18.6831 27.4155 -2.45805 -2.18226 0.0753652 -0.252143 1.83454 0.0208784 -1.31568 3.53663 -0.464362 4.54279 -8.61122 0.318647 -0 0 0 -0 0 0 -1.4456e-013 5.43468e-013 -1.41358e-014 23.1482 6.33212 -0.335031 -10.1607 -7.02259 12.4074 0.00953023 -2.1658 -0.303598 2.57534e-010 -3.67952e-010 2.48346e-010 4.4209e-010 -6.3637e-010 4.3048e-010 2.57536e-010 -3.67951e-010 2.48335e-010 7.73091 5.47488 0.417314 2.57533e-010 -3.67954e-010 2.48349e-010 2.90554 0.965183 0.102902 2.5754e-010 -3.67953e-010 2.4835e-010 10.2786 0.731801 0.0259123 2.57526e-010 -3.67952e-010 2.48361e-010 2.22167 -0.733487 -0.20892 -1.44846e-013 5.43749e-013 -1.44527e-014 -22.339 7.23367 -0.0944527 10.4452 -7.31286 -12.5867 -0.0121298 2.55632 -0.358122 3.55101e-010 -1.57438e-011 7.39205e-011 6.13865e-010 -2.7678e-011 1.26136e-010 3.55096e-010 -1.57448e-011 7.39292e-011 -7.73091 5.47488 -0.417314 3.55101e-010 -1.57437e-011 7.39213e-011 -2.90554 0.965183 -0.102902 3.55099e-010 -1.5745e-011 7.39215e-011 -10.2786 0.731801 -0.0259123 3.55107e-010 -1.5741e-011 7.39137e-011 -2.22167 -0.733487 0.20892 -2.03217e-016 0 -3.88251e-019 -3.60694 -6.81784 0.177569 0.055534 9.56082 0.14074 -1.28235 -3.47182 -5.3865 2.03217e-016 0 3.88251e-019 0.447521 -9.14079 0.821541 -0.0177408 12.7706 -0.174867 1.15855 -5.53794 4.456 
-26.5626 82.5832 0.156068 4.52427 24.0539 61.282 -4.23746 -4.4847 0.177934 -0.296806 3.77975 0.0817291 -2.64975 7.2755 -0.962506 9.4613 -17.7156 0.680195 -0 0 0 -0 0 0 -3.08399e-013 1.16101e-012 -2.93301e-014 47.7012 13.0263 -0.702717 -17.6272 -13.3382 26.083 -0.00542564 -4.45713 -0.626267 4.84756e-010 -8.29075e-010 5.69688e-010 8.31186e-010 -1.43376e-009 9.87092e-010 4.84757e-010 -8.29072e-010 5.69677e-010 7.73091 5.47488 0.417314 4.84756e-010 -8.29077e-010 5.69689e-010 2.90554 0.965183 0.102902 4.84764e-010 -8.29076e-010 5.69693e-010 10.2786 0.731801 0.0259123 4.84748e-010 -8.29075e-010 5.69705e-010 2.22167 -0.733487 -0.20892 -3.08675e-013 1.16177e-012 -2.96034e-014 -45.9286 14.8934 -0.197272 18.013 -13.8396 -26.4946 0.0109548 5.34507 -0.751356 7.49484e-010 -6.75237e-011 1.11481e-010 1.29562e-009 -1.17639e-010 1.89241e-010 7.49479e-010 -6.75256e-011 1.11489e-010 -7.73091 5.47488 -0.417314 7.49482e-010 -6.75236e-011 1.11483e-010 -2.90554 0.965183 -0.102902 7.49482e-010 -6.75256e-011 1.11483e-010 -10.2786 0.731801 -0.0259123 7.49486e-010 -6.75203e-011 1.11477e-010 -2.22167 -0.733487 0.20892 -2.03217e-016 0 -3.88251e-019 -7.32909 -11.8087 0.387515 0.0252704 21.5236 0.393248 -3.62812 -11.0262 -11.4198 2.03217e-016 0 3.88251e-019 2.21575 -13.5251 1.61344 0.0269851 22.5866 -0.374136 3.05335 -12.845 9.46082 
-26.5685 82.5894 0.183164 -2.22025 10.9854 84.2157 -5.81323 -6.53899 0.27086 -0.343427 5.51368 0.136723 -3.77252 10.6071 -1.41461 13.9428 -25.8303 1.05009 -0 0 0 -0 0 0 -4.40934e-013 1.63039e-012 -4.27057e-014 69.6775 18.9937 -1.05649 -21.7425 -17.0855 38.9546 -0.0406416 -6.49666 -0.916025 7.04407e-010 -1.10398e-009 7.45383e-010 1.20853e-009 -1.90931e-009 1.29204e-009 7.04407e-010 -1.10397e-009 7.45373e-010 7.73091 5.47488 0.417314 7.04406e-010 -1.10398e-009 7.45383e-010 2.90554 0.965183 0.102902 7.04415e-010 -1.10398e-009 7.4539e-010 10.2786 0.731801 0.0259123 7.04398e-010 -1.10398e-009 7.45402e-010 2.22167 -0.733487 -0.20892 -4.412e-013 1.63123e-012 -4.29604e-014 -66.9408 21.7008 -0.302545 22.1015 -17.6659 -39.6527 0.0602093 7.66776 -1.08298 9.97131e-010 -4.74382e-011 2.22111e-010 1.72383e-009 -8.33838e-011 3.79008e-010 9.97127e-010 -4.74411e-011 2.22118e-010 -7.73091 5.47488 -0.417314 9.97129e-010 -4.74384e-011 2.22114e-010 -2.90554 0.965183 -0.102902 9.97129e-010 -4.74409e-011 2.22114e-010 -10.2786 0.731801 -0.0259123 9.97131e-010 -4.74346e-011 2.2211e-010 -2.22167 -0.733487 0.20892 -2.03217e-016 0 -3.88251e-019 -10.6127 -16.2593 0.587842 -0.107645 32.1906 0.671598 -7.12177 -17.4 -17.2195 2.03217e-016 0 3.88251e-019 3.90304 -17.4331 2.35451 0.134568 31.3423 -0.587204 5.8811 -19.109 14.2929 
-26.5844 82.5942 0.206809 -3.47631 -4.46414 91.0888 -6.89549 -7.97296 0.338151 -0.387131 6.71941 0.176479 -4.49197 12.9231 -1.73096 17.1015 -31.4737 1.35221 -0 0 0 -0 0 0 -4.95212e-013 1.72933e-012 -5.15349e-014 85.044 23.1468 -1.32682 -23.5301 -18.2442 48.1555 -0.0773065 -7.90738 -1.11849 9.05129e-010 -9.13334e-010 5.56963e-010 1.55651e-009 -1.58026e-009 9.67813e-010 9.05129e-010 -9.1333e-010 5.56953e-010 7.73091 5.47488 0.417314 9.05129e-010 -9.13337e-010 5.56963e-010 2.90554 0.965183 0.102902 9.05137e-010 -9.13337e-010 5.56971e-010 10.2786 0.731801 0.0259123 9.0512e-010 -9.13335e-010 5.56982e-010 2.22167 -0.733487 -0.20892 -4.95464e-013 1.72934e-012 -5.18331e-014 -81.5618 26.3776 -0.396647 23.8489 -18.8176 -49.1351 0.0965202 8.82675 -1.25053 8.77942e-010 1.5231e-010 5.15415e-010 1.51821e-009 2.61413e-010 8.85434e-010 8.77938e-010 1.52307e-010 5.15422e-010 -7.73091 5.47488 -0.417314 8.7794e-010 1.5231e-010 5.15418e-010 -2.90554 0.965183 -0.102902 8.7794e-010 1.52307e-010 5.15418e-010 -10.2786 0.731801 -0.0259123 8.77941e-010 1.52314e-010 5.15415e-010 -2.22167 -0.733487 0.20892 -2.03217e-016 0 -3.88251e-019 -12.8701 -19.3599 0.746606 -0.281832 39.6197 0.921248 -10.3897 -21.5313 -21.6191 2.03217e-016 0 3.88251e-019 5.15127 -20.16 2.90196 0.257992 37.4481 -0.769032 8.5373 -23.2618 17.965 
-26.5912 82.5928 0.210872 -3.66058 -11.1133 91.6247 -7.29122 -8.53663 0.372689 -0.427107 7.18412 0.195896 -4.7026 13.8147 -1.84015 18.2867 -33.6524 1.49113 -0 0 0 -0 0 0 -4.3102e-013 1.23134e-012 -5.48308e-014 91.0731 24.7577 -1.44222 -24.0704 -18.3291 51.756 -0.0939527 -8.43949 -1.1954 1.1421e-009 1.28728e-010 -3.06411e-010 1.97318e-009 2.2025e-010 -5.22351e-010 1.1421e-009 1.28733e-010 -3.06421e-010 7.73091 5.47488 0.417314 1.1421e-009 1.28726e-010 -3.06411e-010 2.90554 0.965183 0.102902 1.14211e-009 1.28725e-010 -3.06404e-010 10.2786 0.731801 0.0259123 1.14209e-009 1.28727e-010 -3.06394e-010 2.22167 -0.733487 -0.20892 -4.31258e-013 1.22894e-012 -5.52815e-014 -87.2601 28.0476 -0.469023 24.4152 -18.9535 -53.015 0.0815704 8.21795 -1.16268 1.00068e-010 7.23039e-010 1.20377e-009 1.74519e-010 1.2474e-009 2.07624e-009 1.00063e-010 7.23034e-010 1.20377e-009 -7.73091 5.47488 -0.417314 1.00065e-010 7.23036e-010 1.20377e-009 -2.90554 0.965183 -0.102902 1.00064e-010 7.23033e-010 1.20377e-009 -10.2786 0.731801 -0.0259123 1.00068e-010 7.2304e-010 1.20377e-009 -2.22167 -0.733487 0.20892 -2.03217e-016 0 -3.88251e-019 -13.7181 -20.5712 0.844047 -0.375658 42.5162 1.03811 -11.881 -23.0711 -23.4613 2.03217e-016 0 3.88251e-019 5.67545 -21.2419 3.13851 0.318514 39.8469 -0.851615 9.73939 -24.8387 19.4781 
-26.5888 82.5834 0.186004 -3.65848 -10.3457 91.5951 -7.19844 -8.47876 0.383296 -0.463372 7.1196 0.200581 -4.56306 13.6895 -1.79727 18.0252 -33.3575 1.48835 -0 0 0 -0 0 0 -2.82631e-013 3.10697e-013 -5.41347e-014 90.4107 24.5536 -1.43528 -24.0175 -18.3373 51.3707 -0.09123 -8.3441 -1.18163 1.40198e-009 1.76944e-009 -1.64403e-009 2.43368e-009 3.05538e-009 -2.83176e-009 1.40198e-009 1.76944e-009 -1.64404e-009 7.73091 5.47488 0.417314 1.40198e-009 1.76944e-009 -1.64403e-009 2.90554 0.965183 0.102902 1.40198e-009 1.76944e-009 -1.64402e-009 10.2786 0.731801 0.0259123 1.40197e-009 1.76944e-009 -1.64401e-009 2.22167 -0.733487 -0.20892 -2.82853e-013 3.04792e-013 -5.48149e-014 -86.5948 27.571 -0.520071 24.448 -19.1234 -52.9201 0.0407129 6.3528 -0.895489 -1.14139e-009 1.55306e-009 2.16766e-009 -1.97015e-009 2.68156e-009 3.7444e-009 -1.14139e-009 1.55306e-009 2.16767e-009 -7.73091 5.47488 -0.417314 -1.14139e-009 1.55306e-009 2.16767e-009 -2.90554 0.965183 -0.102902 -1.14139e-009 1.55306e-009 2.16766e-009 -10.2786 0.731801 -0.0259123 -1.14138e-009 1.55306e-009 2.16766e-009 -2.22167 -0.733487 0.20892 -2.03217e-016 0 -3.88251e-019 -13.5693 -20.4331 0.893116 -0.367072 42.1757 1.02483 -11.7455 -22.9292 -23.3019 2.03217e-016 0 3.88251e-019 5.65389 -21.1505 3.14009 0.308314 39.5982 -0.843799 9.60069 -24.6915 19.2921 
-26.5939 82.5788 0.172294 -3.58256 -6.61084 91.3476 -6.91462 -8.17531 0.377535 -0.491921 6.84589 0.197077 -4.28511 13.1651 -1.69752 17.1744 -32.0853 1.42008 -0 0 0 -0 0 0 -1.14817e-013 -6.53684e-013 -5.05111e-014 87.071 23.63 -1.38082 -23.728 -18.3144 49.3899 -0.0808699 -7.99575 -1.13133 1.57062e-009 3.33017e-009 -2.90703e-009 2.73602e-009 5.75232e-009 -5.01268e-009 1.57062e-009 3.33017e-009 -2.90705e-009 7.73091 5.47488 0.417314 1.57061e-009 3.33017e-009 -2.90703e-009 2.90554 0.965183 0.102902 1.57062e-009 3.33017e-009 -2.90703e-009 10.2786 0.731801 0.0259123 1.57061e-009 3.33017e-009 -2.90702e-009 2.22167 -0.733487 -0.20892 -1.15019e-013 -6.63127e-013 -5.14161e-014 -83.392 26.2746 -0.548923 24.277 -19.3236 -51.198 0.0143034 4.20766 -0.591695 -2.33609e-009 2.29569e-009 3.01889e-009 -4.03408e-009 3.96469e-009 5.21782e-009 -2.3361e-009 2.29568e-009 3.01889e-009 -7.73091 5.47488 -0.417314 -2.33609e-009 2.29568e-009 3.01889e-009 -2.90554 0.965183 -0.102902 -2.3361e-009 2.29568e-009 3.01889e-009 -10.2786 0.731801 -0.0259123 -2.33608e-009 2.29568e-009 3.01889e-009 -2.22167 -0.733487 0.20892 -2.03217e-016 0 -3.88251e-019 -13.0334 -19.755 0.907402 -0.317502 40.5425 0.959581 -10.9516 -22.114 -22.332 2.03217e-016 0 3.88251e-019 5.40774 -20.5872 3.04186 0.270056 38.2872 -0.799427 8.92695 -23.8507 18.43 
